<?xml version="1.0" encoding="UTF-8" standalone="no"?>
<svg
   xmlns="http://www.w3.org/2000/svg"
   width="100"
   height="100"
   viewBox="0 0 24 24"
   fill="none"
   stroke="#FFFFFFFF"
   stroke-width="0.8">
  <path
     d="m 1.1,9.3395769 v 5.3207421 h 3.6333455 l 4.541682,4.433953 V 4.905625 l -4.541682,4.4339519 z"
     id="path16"/>
  <path
     d="m 13.362541,11.999948 c 0,-1.569618 -0.926503,-2.9175401 -2.270841,-3.5737651 v 7.1386621 c 1.344338,-0.647356 2.270841,-1.995277 2.270841,-3.564897 z"
     id="path14"/>
  <path
     d="m 11.0917,4.2227964 v 1.8267882 c 2.625092,0.7626393 4.541681,3.1392373 4.541681,5.9503634 0,2.811126 -1.916589,5.187724 -4.541681,5.950365 v 1.826788 c 3.642429,-0.80698 6.358355,-3.98169 6.358355,-7.777153 0,-3.7954631 -2.715926,-6.9701724 -6.358355,-7.7771516 z"
     id="path2"/>
  <path
     d="m 16.541645,4.2227964 v 1.8267882 c 2.625093,0.7626393 4.541682,3.1392373 4.541682,5.9503634 0,2.811126 -1.916589,5.187724 -4.541682,5.950365 v 1.826788 C 20.184075,18.970121 22.9,15.795411 22.9,11.999948 22.9,8.2044849 20.184075,5.0297756 16.541645,4.2227964 Z"
     id="path2-3"/>
</svg>
